<?xml version="1.0" standalone="no"?>
<!DOCTYPE svg PUBLIC "-//W3C//DTD SVG 20010904//EN"
 "http://www.w3.org/TR/2001/REC-SVG-20010904/DTD/svg10.dtd">
<svg version="1.0" xmlns="http://www.w3.org/2000/svg"
 width="314.000000pt" height="223.000000pt" viewBox="0 0 314.000000 223.000000"
 preserveAspectRatio="xMidYMid meet">

<g transform="translate(0.000000,223.000000) scale(0.100000,-0.100000)"
fill="#000000" stroke="none">
<path d="M828 1493 c-109 -241 -261 -577 -338 -748 -77 -170 -140 -313 -140
-317 0 -5 93 -7 206 -6 l207 3 36 85 37 85 212 3 c117 1 212 4 212 7 0 2 -5
16 -12 30 l-11 25 -222 0 -222 0 -35 -82 -35 -83 -131 -3 c-73 -1 -132 0 -132
2 0 3 36 88 81 188 45 101 96 217 114 258 440 1001 399 915 437 915 l32 0 298
-670 c164 -368 298 -675 298 -683 0 -10 -26 -12 -117 -10 l-116 3 -67 150 -68
150 -336 3 -337 2 -23 -52 c-13 -29 -37 -86 -55 -126 l-31 -73 46 3 45 3 38
90 39 90 119 3 c65 2 195 0 288 -3 l170 -7 67 -152 67 -151 196 -3 c108 -1
195 1 192 5 -2 5 -156 344 -342 756 l-338 747 -66 0 -66 0 -197 -437z"/>
<path d="M1870 1175 l0 -755 435 0 435 0 0 180 0 180 -215 0 -215 0 0 -35 0
-35 180 0 181 0 -3 -107 -3 -108 -362 -3 -363 -2 0 685 0 685 40 0 40 0 0
-650 0 -650 35 0 35 0 0 685 0 685 -110 0 -110 0 0 -755z"/>
<path d="M2170 1245 l0 -685 210 0 210 0 0 35 0 35 -175 0 -175 0 0 650 0 650
-35 0 -35 0 0 -685z"/>
<path d="M900 1305 c-101 -227 -186 -418 -188 -424 -3 -8 90 -11 303 -11 178
0 305 4 303 9 -17 47 -223 491 -227 491 -3 0 -40 -84 -82 -185 l-77 -185 38 0
37 0 37 90 c21 49 41 92 45 95 7 4 121 -230 121 -247 0 -14 -380 -10 -380 3 0
18 254 619 261 619 4 0 53 -105 110 -232 56 -128 155 -352 220 -498 l117 -265
41 -3 40 -3 -85 188 c-47 103 -164 365 -262 581 -97 215 -179 392 -182 392 -3
0 -88 -187 -190 -415z"/>
</g>
</svg>
